<svg width="1512" height="874" viewBox="0 0 1512 874" fill="none" xmlns="http://www.w3.org/2000/svg">
<mask id="mask0_4009_216" style="mask-type:luminance" maskUnits="userSpaceOnUse" x="-570" y="-332" width="3153" height="1774">
<path d="M2582.41 -331.52H-569.725V1441.55H2582.41V-331.52Z" fill="white" style="fill:white;fill-opacity:1;"/>
</mask>
<g mask="url(#mask0_4009_216)">
<path d="M2582.41 -331.52H-569.725V1441.55H2582.41V-331.52Z" fill="#11A7F4" style="fill:#11A7F4;fill:color(display-p3 0.0667 0.6549 0.9569);fill-opacity:1;"/>
<path d="M-349.074 1323.06V-958.005H3734.9V1317.09V1585.26V2124.21V2342.02V2499.72V3125.97H-349.074V2610.68V2191.47V1474.97V1323.06Z" fill="#F6FBFD" style="fill:#F6FBFD;fill:color(display-p3 0.9647 0.9843 0.9922);fill-opacity:1;"/>
<path d="M452.951 525.466C469.557 539.079 484.435 555.675 499.489 571.026L589.098 664.343L724.892 803.549C754.132 833.62 784.514 863.284 811.303 895.569L717.941 1016.95L481.756 1320.01L454.815 1355.13C451.893 1358.94 447.666 1366.02 443.554 1368.49C431.298 1375.86 407.045 1377.76 392.852 1380.37C269.539 1403.02 143.651 1412.19 19.2281 1427.36L-102.814 1443.52C-85.659 1416.73 -62.806 1393.28 -43.0225 1368.43L-10.2462 1326.8C-4.08973 1319 3.19959 1308.6 11.3853 1302.9C16.1864 1299.55 24.1199 1298.14 29.6775 1296.46L71.2974 1284.26L274.58 1225.38C268.317 1201.32 215.169 1005.07 216.144 997.547C216.538 994.501 221.002 989.13 222.791 986.603C231.384 974.436 241.808 963.435 251.432 952.059L317.881 871.869C328.484 858.884 341.025 845.791 349.78 831.54C363.612 809.028 374.383 784.057 386.644 760.611C393.396 747.709 402.121 735.081 407.155 721.428C414.027 702.787 416.972 681.378 421.775 661.975C433.002 616.566 445.059 571.609 452.951 525.466Z" fill="#92DDFD" style="fill:#92DDFD;fill:color(display-p3 0.5725 0.8667 0.9922);fill-opacity:1;"/>
<path d="M1319.58 1706.55C1334.63 1657.4 1361.18 1609.42 1381.56 1561.99L1568.03 1136.86L1630.88 988.888C1638.42 970.59 1648.8 950.99 1654.34 932.152C1656.21 925.751 1652.57 913.328 1651.5 906.694L1640.18 836.136L1601.23 577.815L1590.12 506.122C1588.3 493.588 1585.29 479.965 1586.1 467.295C1587.18 450.055 1595.28 429.576 1599.81 412.793L1652.43 229.148L1737.18 -73.3719L1772.56 -195.584C1778.75 -167.282 1788.96 -140.448 1798.31 -113.107L1830.37 -17.199L1955.47 329.439L1979.34 395.509C1983.27 406.097 1986.34 418.366 1992.5 427.809C1998.55 437.1 2009.49 445.656 2017.54 453.406L2077 509.552L2232.32 656.325L2390.84 805.617C2400.92 815.533 2417.81 828.482 2424.88 840.525C2429.82 848.969 2432.23 861.093 2435.6 870.382L2458.63 931.259L2586.66 1258.62L2982.04 1441.07C2999.85 1449.28 3033.5 1502.93 3047.39 1521.07L3157.73 1661.87L3204.44 1722.92C3214.01 1735.45 3223.41 1749.24 3234.7 1760.25C3246.58 1771.8 3261.97 1780.72 3275.38 1790.36L3359.84 1851.41L3734.9 2124.01V2341.88C3654.25 2305.04 3568.04 2277.36 3484.9 2246.33L3075.89 2091.09L2980.7 2055.55C2973.59 2052.87 2958.55 2049.42 2952.9 2045.03C2946.99 2040.46 2941.41 2028.54 2937.36 2022L2892.52 1947.79L2734.08 1681.73C2726.75 1669.28 2711.41 1660.9 2699.9 1652.43L2626.56 1599L2454.82 1469.06L2426.95 1448.83C2426.06 1448.19 2420.49 1444.8 2420.01 1443.92C2416.82 1437.82 2415.8 1424.55 2414.2 1417.48L2393.83 1322.98L2305.47 907.64C2303.44 898.262 2287.56 817.389 2284.39 813.38C2281.81 810.141 2273.6 806.096 2269.87 803.523L2225.82 773.875L2060.24 659.152C2039.18 644.329 2013.72 630.195 1994.87 613.154C1987.05 606.089 1981.79 591.04 1976.92 581.633L1943.08 517.706L1830.29 305.94L1758.79 172.159C1759.4 183.988 1762.93 196.114 1765.2 207.778L1779.03 282.561L1846.72 715.612L1869.08 855.792C1871.33 868.711 1871.8 886.347 1876.94 898.255C1880.39 906.251 1887.13 913.592 1892.21 920.625L1925.92 966.155L1992.62 1056.44C1969.95 1113.8 1940.71 1169.69 1914.57 1225.64L1894.89 1268.2C1891.08 1276.46 1887.28 1287.11 1881.51 1294.16C1875.03 1302.09 1864.96 1307.95 1856.57 1313.74L1816.69 1341.55L1746.88 1389.28C1736.43 1396.28 1721.56 1403.09 1713.17 1412.39C1704.24 1422.27 1697.35 1437.19 1690.29 1448.59L1647.31 1516.49L1475.3 1788.27L1319.58 1706.55Z" fill="#92DDFD" style="fill:#92DDFD;fill:color(display-p3 0.5725 0.8667 0.9922);fill-opacity:1;"/>
<path d="M1475.22 1788.39L1647.25 1516.69L1690.24 1448.82C1697.29 1437.43 1704.18 1422.51 1713.11 1412.63C1721.5 1403.34 1736.37 1396.53 1746.82 1389.53L1816.64 1341.81L1856.51 1314.02C1864.9 1308.22 1874.97 1302.37 1881.45 1294.45C1887.22 1287.39 1891.03 1276.75 1894.83 1268.49L1914.51 1225.94C1940.67 1170.01 1969.91 1114.14 1992.58 1056.8L1925.86 966.547L1892.15 921.033C1887.09 914.001 1880.33 906.665 1876.88 898.668C1871.76 886.765 1871.27 869.137 1869.02 856.221L1846.66 716.089L1778.95 283.183L1765.14 208.427C1762.87 196.768 1759.35 184.644 1758.74 172.821L1830.23 306.556L1943.02 518.249L1976.88 582.155C1981.75 591.558 1986.99 606.604 1994.81 613.666C2013.66 630.702 2039.12 644.829 2060.18 659.648L2225.76 774.332L2269.81 803.97C2273.54 806.541 2281.75 810.586 2284.33 813.823C2287.52 817.832 2303.4 898.676 2305.43 908.052L2393.79 1323.25L2414.16 1417.72C2415.76 1424.78 2416.78 1438.05 2419.97 1444.15C2420.45 1445.03 2426.02 1448.42 2426.91 1449.06L2454.78 1469.28L2626.52 1599.18L2699.86 1652.59C2711.37 1661.06 2726.71 1669.43 2734.06 1681.88L2892.5 1947.84L2937.34 2022.04C2941.39 2028.58 2946.95 2040.48 2952.86 2045.07C2958.53 2049.46 2973.57 2052.89 2980.68 2055.57L3075.87 2091.11L3484.88 2246.29C3568.02 2277.3 3654.23 2304.98 3734.9 2341.8V2499.49L3504.7 2493.52L3453.66 2492.12C3443.21 2491.82 3431.85 2492.3 3421.74 2489.56C3391.62 2481.4 3360.45 2465.29 3331.61 2453.17L3196.34 2397.95L3151.44 2379.86C3147.39 2378.19 3141.22 2374.03 3137.3 2373.38C3131.05 2372.32 3111.14 2381.6 3104.58 2383.84L3014.58 2413.63L2039.27 1891.36L2033.42 1889.49L1879.01 1994.2L1475.22 1788.39Z" fill="#10A8F6" style="fill:#10A8F6;fill:color(display-p3 0.0627 0.6588 0.9647);fill-opacity:1;"/>
<path d="M-349.074 1323.35V-958.005H3734.9V1317.38C3708.07 1288.18 3675.65 1261.85 3646.49 1234.84L3428.24 1034.34L3247.51 861.627C3207.93 823.246 3168.64 780.869 3124.53 747.8L3120.57 749.088L2837.51 1003.35L2521.08 684.006L2072.98 170.782L1864.84 -103.122C1834.92 -144.107 1808.34 -188.841 1775.4 -227.365C1762.12 -210.795 1750.74 -192.044 1738.62 -174.589L1678.75 -90.5981L1450.3 222.842L1395.5 297.569C1383.28 314.768 1371.68 334.169 1357.75 349.932C1340.28 369.686 1312.79 386.13 1291.73 402.405L1097.05 548.831C1073.02 567.259 1045.71 585.278 1023.83 606.155C1015.03 614.547 1008.03 626.764 1000.94 636.64L955.078 700.238L810.504 896.101C783.738 863.804 753.385 834.132 724.171 804.049L588.501 664.798L498.973 571.448C483.933 556.091 469.069 539.491 452.479 525.872L449.136 522.822C434.317 532.208 421.042 548.043 408.751 560.599L327.932 645.245L68.3683 907.776L-218.657 1193.83C-261.878 1236.72 -308.122 1278.35 -349.074 1323.35Z" fill="#10A8F6" style="fill:#10A8F6;fill:color(display-p3 0.0627 0.6588 0.9647);fill-opacity:1;"/>
<mask id="mask1_4009_216" style="mask-type:luminance" maskUnits="userSpaceOnUse" x="366" y="564" width="2514" height="1258">
<path d="M2879.89 564.867H366.064V1821.78H2879.89V564.867Z" fill="white" style="fill:white;fill-opacity:1;"/>
</mask>
<g mask="url(#mask1_4009_216)">
<path d="M1810.33 719.375C1810.65 720.256 1811.43 721.818 1811.47 722.685C1811.61 725.898 1807.87 733.8 1806.73 737.179C1798.35 761.909 1789.37 786.697 1777.88 810.182C1769.47 827.387 1759.56 846.52 1745.67 859.93C1733.77 871.424 1720.71 879.545 1711.41 893.82C1695.57 918.182 1692.52 947.292 1673.96 970.312C1658.24 989.824 1630.96 997.409 1610.51 1011.02C1600.95 1017.39 1592.76 1025.87 1584.76 1034.04C1573.68 1045.34 1562.87 1057.33 1554.61 1070.9C1542.22 1091.31 1536.79 1114.9 1517.4 1130.46C1499.43 1144.88 1471.87 1152.57 1450.59 1161.58C1429.67 1170.43 1409.22 1181.78 1394.25 1199.24C1381.54 1214.04 1371.76 1231.51 1359.26 1246.59C1354.03 1252.91 1348.5 1259.37 1342.66 1265.1C1338.55 1269.13 1333.3 1272.96 1329.9 1277.57L1285.2 1300.23L1183.93 1233.43C1199.93 1224.09 1215.19 1211.91 1230.14 1200.88C1256.86 1181.16 1283.97 1161.92 1307.48 1138.29C1324.19 1121.5 1337.42 1101.38 1353.05 1083.54C1388.28 1043.33 1425.69 1005.12 1465.74 969.652C1546.99 895.729 1637.63 830.957 1729.44 770.832C1755.86 753.524 1782.55 734.356 1810.33 719.375Z" fill="#FDFEFE" style="fill:#FDFEFE;fill:color(display-p3 0.9922 0.9961 0.9961);fill-opacity:1;"/>
<path d="M1810.33 719.375L1813.03 719.044L1925.92 841.157L2011.3 923.674C2011.77 924.151 2013.27 925.416 2013.37 925.993C2093.06 998.555 2175.76 1075.37 2274.72 1120.8C2309.47 1136.75 2347.06 1148.29 2384.18 1157.17L2482.17 1178.06L2520.27 1184.68C2525.61 1185.54 2533.25 1185.8 2538.02 1187.86C2548.3 1192.3 2558.37 1201.16 2568.28 1206.81L2639.44 1244.78L2881.42 1370V1561.9V1585.9L2749.37 1544.97L2713.24 1532.51C2707.74 1530.5 2701.63 1527 2695.78 1526.49C2691.29 1526.1 2686.54 1527.88 2682.15 1528.57C2667.83 1530.82 2652.13 1534.56 2637.73 1534.88L2636.8 1534.89C2627.05 1537.12 2616.94 1537.73 2607.03 1539.23C2598.82 1540.46 2584.87 1544.35 2576.93 1541.75L2526.49 1526.92L2436.42 1496.52C2315.08 1452.88 2196.29 1400.12 2080.74 1343.07L1924.22 1259.32L1878.89 1232.86C1872.13 1228.86 1865.32 1223.69 1858.18 1220.51C1847.09 1215.57 1832.63 1213.37 1820.87 1209.64C1776.62 1195.59 1733.65 1181.41 1690.84 1163.34C1679.69 1158.63 1666.34 1154.01 1656.27 1147.37L1655.36 1147.06C1636.02 1140.34 1616.3 1128.17 1597.84 1118.9L1410.05 1234.52C1384.24 1249.32 1357.29 1266.04 1329.9 1277.57C1333.3 1272.96 1338.55 1269.13 1342.66 1265.1C1348.5 1259.37 1354.04 1252.91 1359.26 1246.59C1371.76 1231.51 1381.54 1214.04 1394.25 1199.24C1409.22 1181.78 1429.67 1170.43 1450.59 1161.58C1471.87 1152.57 1499.43 1144.88 1517.4 1130.46C1536.78 1114.9 1542.22 1091.31 1554.61 1070.9C1562.87 1057.33 1573.68 1045.34 1584.76 1034.04C1592.77 1025.87 1600.95 1017.39 1610.51 1011.02C1630.95 997.409 1658.24 989.824 1673.96 970.31C1692.52 947.292 1695.57 918.182 1711.41 893.82C1720.71 879.545 1733.77 871.424 1745.67 859.93C1759.56 846.52 1769.47 827.387 1777.88 810.182C1789.37 786.695 1798.35 761.909 1806.73 737.179C1807.87 733.8 1811.61 725.898 1811.47 722.685C1811.43 721.816 1810.65 720.254 1810.33 719.375Z" fill="url(#paint0_linear_4009_216)" style=""/>
</g>
<mask id="mask2_4009_216" style="mask-type:luminance" maskUnits="userSpaceOnUse" x="-1918" y="381" width="2515" height="1258">
<path d="M596.564 381.649H-1917.26V1638.56H596.564V381.649Z" fill="white" style="fill:white;fill-opacity:1;"/>
</mask>
<g mask="url(#mask2_4009_216)">
<path d="M-472.988 536.157L-470.298 535.826L-357.413 657.94L-272.03 740.457C-271.549 740.933 -270.052 742.198 -269.953 742.775C-190.267 815.337 -107.559 892.151 -8.60419 937.579C26.1559 953.537 63.7254 965.068 100.854 973.955L198.853 994.845L236.939 1001.46C242.282 1002.32 249.922 1002.58 254.699 1004.65C264.979 1009.08 275.05 1017.94 284.95 1023.59L356.125 1061.56L598.106 1186.78V1378.68V1402.68L466.049 1361.75L429.916 1349.29C424.426 1347.28 418.309 1343.78 412.45 1343.28C407.968 1342.89 403.214 1344.66 398.817 1345.35C384.496 1347.6 368.812 1351.34 354.405 1351.66L353.485 1351.68C343.719 1353.91 333.611 1354.51 323.699 1356.01C315.496 1357.25 301.544 1361.13 293.608 1358.53L243.166 1343.7L153.09 1313.3C31.7687 1269.66 -87.0371 1216.9 -202.586 1159.86L-359.109 1076.1L-404.429 1049.64C-411.185 1045.64 -418.001 1040.47 -425.149 1037.29C-436.24 1032.35 -450.696 1030.16 -462.462 1026.42C-506.702 1012.38 -549.665 998.192 -592.48 980.119C-603.632 975.41 -616.983 970.793 -627.054 964.149L-627.951 963.842C-647.307 957.12 -667.032 944.949 -685.48 935.678L-873.283 1051.3C-899.089 1066.11 -926.032 1082.82 -953.426 1094.35C-950.027 1089.75 -944.777 1085.92 -940.668 1081.88C-934.822 1076.15 -929.288 1069.69 -924.06 1063.38C-911.567 1048.29 -901.782 1030.83 -889.073 1016.02C-874.095 998.561 -853.659 987.207 -832.739 978.36C-811.45 969.356 -783.896 961.661 -765.926 947.238C-746.542 931.681 -741.104 908.091 -728.703 887.679C-720.46 874.113 -709.647 862.119 -698.571 850.824C-690.56 842.655 -682.372 834.167 -672.817 827.8C-652.367 814.191 -625.089 806.606 -609.368 787.092C-590.797 764.074 -587.751 734.964 -571.908 710.602C-562.61 696.327 -549.554 688.206 -537.653 676.713C-523.762 663.302 -513.85 644.169 -505.437 626.964C-493.953 603.477 -484.975 578.691 -476.599 553.961C-475.457 550.582 -471.711 542.68 -471.858 539.467C-471.895 538.598 -472.681 537.036 -472.988 536.157Z" fill="url(#paint1_linear_4009_216)" style=""/>
<path d="M-627.053 964.149L-600.008 916.984C-597.035 911.942 -591.079 904.562 -589.936 899.168C-588.929 894.409 -589.359 888.37 -589.175 883.478L-588.573 849.542C-588.647 842.759 -589.396 834.565 -587.566 827.993C-585.06 819.004 -579.104 809.468 -575.358 800.747L-545.23 729.511L-516.637 811.429C-513.235 821.161 -509.943 836.525 -504.527 845.129C-501.235 850.346 -493.301 856.075 -488.671 860.419L-457.327 890.744L-370.271 976.267L-332.591 1014.04C-328.194 1018.41 -323.072 1025.14 -317.741 1028L-311.244 894.091L-254.365 953.369C-243.238 964.78 -231.436 975.986 -221.548 988.498C-214.203 997.802 -208.431 1009.6 -202.426 1019.85L-168.919 1077.37C-163.921 1086.15 -159.512 1097.04 -152.942 1104.54C-147.106 1111.19 -138.41 1116.26 -131.497 1121.78L-78.6597 1163.97L-46.4311 1189.86C-42.5382 1193.02 -37.5873 1198.27 -32.9576 1200.08C-27.7862 1198.47 -7.09052 1190.08 -3.8241 1190.42C-2.95135 1190.51 -1.02466 1191.69 -0.151917 1192.16L94.1126 1250.45L57.5242 1173.88L131.757 1222.82C148.18 1233.38 167.24 1243.12 182.15 1255.56C189.52 1261.72 256.162 1321.1 257.685 1321.29C262.978 1321.95 274.905 1317.58 280.715 1316.41C281.794 1316.19 285.173 1315.28 286.107 1315.55C291.67 1317.21 298.731 1322.42 304.074 1325.28L353.486 1351.68C343.722 1353.91 333.613 1354.51 323.702 1356.01C315.497 1357.25 301.544 1361.13 293.611 1358.53L243.167 1343.7L153.091 1313.3C31.7693 1269.66 -87.0345 1216.9 -202.586 1159.86L-359.107 1076.1L-404.428 1049.64C-411.183 1045.64 -418 1040.47 -425.148 1037.29C-436.239 1032.35 -450.695 1030.16 -462.461 1026.42C-506.701 1012.38 -549.663 998.192 -592.479 980.119C-603.631 975.41 -616.981 970.794 -627.053 964.149Z" fill="#1365C2" style="fill:#1365C2;fill:color(display-p3 0.0745 0.3961 0.7608);fill-opacity:1;"/>
<path d="M-269.953 742.777C-190.268 815.337 -107.56 892.151 -8.60437 937.579C26.1558 953.537 63.7252 965.068 100.853 973.955L198.853 994.845L236.939 1001.46C242.282 1002.32 249.922 1002.58 254.699 1004.65C264.979 1009.08 275.05 1017.94 284.95 1023.59L356.125 1061.56L598.106 1186.78V1378.68C582.692 1370.97 567.83 1361.23 552.883 1352.58L418.59 1272.69L397.896 1260.49C394.665 1258.55 390.416 1255.33 386.706 1254.71L237.283 1231.47C231.019 1230.82 226.673 1227.19 221.428 1224.05L201.064 1212.03L142.158 1177.48C134.863 1173.07 124.878 1168.69 118.761 1163.03C95.7686 1141.7 74.1036 1117.67 52.4386 1094.93C47.8089 1090.07 40.8565 1079.92 35.5136 1076.6C32.5407 1074.75 26.4257 1073.66 22.8992 1072.54L-6.23242 1063.02C-9.29196 1062 -13.3188 1061.55 -15.9981 1059.82C-21.3764 1056.33 -26.5361 1049.54 -30.8092 1044.79L-61.6981 1009.57C-67.7778 1002.26 -73.6368 993.129 -80.7724 986.939C-85.9931 982.404 -93.5582 978.888 -99.4902 975.265L-136.89 952.294C-141.213 949.66 -147.01 947.301 -150.436 943.604C-155.263 938.389 -158.9 929.632 -162.314 923.408L-182.027 888.729C-205.656 847.438 -229.263 805.863 -255.976 766.481C-259.845 760.776 -270.359 749.316 -269.953 742.777Z" fill="#C7E6FB" style="fill:#C7E6FB;fill:color(display-p3 0.7804 0.9020 0.9843);fill-opacity:1;"/>
</g>
<path d="M476.39 5.36417C480.742 5.36417 484.27 1.83603 484.27 -2.51616C484.27 -6.86834 480.742 -10.3965 476.39 -10.3965C472.038 -10.3965 468.51 -6.86834 468.51 -2.51616C468.51 1.83603 472.038 5.36417 476.39 5.36417Z" fill="#D9D9D9" style="fill:#D9D9D9;fill:color(display-p3 0.8510 0.8510 0.8510);fill-opacity:1;"/>
</g>
<path d="M1453.31 142.59C1461.03 141.579 1468.61 142.656 1475.81 145.493C1489.13 150.733 1497.79 160.907 1503.4 173.757C1505.63 172.008 1508 170.171 1510.68 169.168C1516.91 166.838 1524.03 167.008 1530.03 169.956C1537.78 173.76 1540.93 180.379 1543.68 188.095L1544.79 187.671C1549.53 185.921 1554.48 185.831 1559.26 187.574C1564.6 189.525 1568.95 192.814 1572.06 197.569C1572.62 198.423 1573.46 200.361 1574.12 200.952C1575.05 201.78 1579.43 202.831 1580.86 203.363C1591.55 207.346 1602.67 210.785 1613.03 215.558L1461.79 215.605L1304.75 215.516C1309.79 211.71 1315.9 208.363 1321.89 206.331C1323.55 205.767 1326.76 205.489 1328.04 204.723C1329.93 203.592 1331.81 201.254 1333.56 199.824C1341.66 193.218 1349.66 192.617 1359.57 193.619C1360.05 184.818 1362.55 177.261 1368.96 170.892C1374.88 165.004 1382.61 161.635 1391 161.658C1400.8 161.684 1407.53 166.336 1414.22 173.006C1415.67 169.856 1417.29 166.675 1419.29 163.827C1427.59 151.964 1439.17 145.095 1453.31 142.59Z" fill="white" style="fill:white;fill-opacity:1;"/>
<path d="M1170.18 -1.18959C1177.9 -2.20059 1185.48 -1.12358 1192.68 1.71342C1206 6.95342 1214.66 17.1274 1220.27 29.9774C1222.5 28.2284 1224.87 26.3914 1227.55 25.3884C1233.78 23.0584 1240.89 23.2284 1246.9 26.1764C1254.65 29.9804 1257.8 36.5994 1260.55 44.3154L1261.66 43.8914C1266.4 42.1414 1271.35 42.0514 1276.13 43.7944C1281.47 45.7454 1285.82 49.0344 1288.93 53.7894C1289.49 54.6434 1290.33 56.5814 1290.99 57.1724C1291.92 58.0004 1296.3 59.0514 1297.73 59.5834C1308.42 63.5664 1319.54 67.0054 1329.9 71.7784L1178.66 71.8254L1021.62 71.7364C1026.66 67.9304 1032.77 64.5834 1038.76 62.5514C1040.42 61.9874 1043.63 61.7094 1044.9 60.9434C1046.79 59.8124 1048.68 57.4744 1050.43 56.0444C1058.52 49.4384 1066.53 48.8374 1076.43 49.8394C1076.92 41.0384 1079.42 33.4814 1085.83 27.1124C1091.75 21.2244 1099.48 17.8554 1107.87 17.8784C1117.67 17.9044 1124.4 22.5564 1131.08 29.2264C1132.54 26.0764 1134.16 22.8954 1136.16 20.0474C1144.46 8.18441 1156.04 1.31541 1170.18 -1.18959Z" fill="white" style="fill:white;fill-opacity:1;"/>
<path d="M937.554 184.484C943.034 183.768 948.419 184.532 953.539 186.542C962.997 190.255 969.152 197.464 973.136 206.569C974.723 205.329 976.402 204.028 978.307 203.317C982.735 201.666 987.789 201.787 992.055 203.875C997.563 206.571 999.798 211.261 1001.75 216.728L1002.54 216.428C1005.91 215.188 1009.42 215.124 1012.82 216.359C1016.62 217.741 1019.7 220.072 1021.92 223.441C1022.31 224.046 1022.91 225.42 1023.38 225.838C1024.04 226.425 1027.15 227.17 1028.16 227.547C1035.76 230.369 1043.66 232.806 1051.02 236.188L943.575 236.221L832.016 236.158C835.596 233.461 839.936 231.09 844.191 229.65C845.371 229.25 847.648 229.053 848.556 228.511C849.898 227.709 851.238 226.053 852.483 225.039C858.23 220.359 863.919 219.932 870.955 220.643C871.302 214.406 873.077 209.051 877.626 204.539C881.833 200.367 887.328 197.979 893.284 197.995C900.248 198.014 905.032 201.31 909.778 206.036C910.813 203.805 911.966 201.55 913.381 199.533C919.279 191.127 927.507 186.259 937.554 184.484Z" fill="white" style="fill:white;fill-opacity:1;"/>
<path d="M69.353 60.6727C77.063 59.6617 84.643 60.7387 91.853 63.5757C105.163 68.8157 113.833 78.9897 119.443 91.8397C121.673 90.0907 124.033 88.2537 126.723 87.2507C132.953 84.9207 140.063 85.0907 146.073 88.0387C153.823 91.8427 156.973 98.4617 159.723 106.178L160.833 105.754C165.573 104.004 170.513 103.914 175.293 105.657C180.643 107.608 184.993 110.897 188.103 115.652C188.663 116.506 189.503 118.444 190.163 119.035C191.093 119.863 195.473 120.914 196.903 121.446C207.593 125.429 218.713 128.868 229.063 133.641L77.833 133.688L-79.207 133.599C-74.167 129.793 -68.057 126.446 -62.067 124.414C-60.407 123.85 -57.197 123.572 -55.927 122.806C-54.037 121.675 -52.147 119.337 -50.397 117.907C-42.307 111.301 -34.297 110.7 -24.397 111.702C-23.907 102.901 -21.4071 95.3437 -15.0071 88.9747C-9.08708 83.0867 -1.34704 79.7177 7.03296 79.7407C16.843 79.7667 23.5729 84.4187 30.2529 91.0887C31.7129 87.9387 33.333 84.7577 35.323 81.9097C43.633 70.0467 55.213 63.1777 69.353 60.6727Z" fill="white" style="fill:white;fill-opacity:1;"/>
<path d="M472.507 124.868C477.987 124.152 483.367 124.916 488.487 126.926C497.947 130.639 504.107 137.848 508.087 146.953C509.677 145.713 511.357 144.412 513.257 143.701C517.687 142.05 522.737 142.171 527.007 144.259C532.517 146.955 534.747 151.645 536.697 157.112L537.497 156.812C540.857 155.572 544.377 155.508 547.767 156.743C551.567 158.125 554.657 160.456 556.867 163.825C557.267 164.43 557.857 165.804 558.327 166.222C558.987 166.809 562.097 167.554 563.117 167.931C570.707 170.753 578.607 173.19 585.967 176.572L478.527 176.605L366.967 176.542C370.547 173.845 374.887 171.474 379.147 170.034C380.327 169.634 382.597 169.437 383.507 168.895C384.847 168.093 386.187 166.437 387.437 165.423C393.177 160.743 398.867 160.316 405.907 161.027C406.257 154.79 408.027 149.435 412.577 144.923C416.787 140.751 422.277 138.363 428.237 138.379C435.197 138.398 439.987 141.694 444.727 146.42C445.767 144.189 446.917 141.934 448.337 139.917C454.227 131.511 462.457 126.643 472.507 124.868Z" fill="white" style="fill:white;fill-opacity:1;"/>
<defs>
<linearGradient id="paint0_linear_4009_216" x1="2578.78" y1="1023.02" x2="1531.92" y2="1606.98" gradientUnits="userSpaceOnUse">
<stop stop-color="#8CCCFD" style="stop-color:#8CCCFD;stop-color:color(display-p3 0.5490 0.8000 0.9922);stop-opacity:1;"/>
<stop offset="1" stop-color="#D5ECFC" style="stop-color:#D5ECFC;stop-color:color(display-p3 0.8353 0.9255 0.9882);stop-opacity:1;"/>
</linearGradient>
<linearGradient id="paint1_linear_4009_216" x1="295.446" y1="839.806" x2="-751.411" y2="1423.76" gradientUnits="userSpaceOnUse">
<stop stop-color="#8CCCFD" style="stop-color:#8CCCFD;stop-color:color(display-p3 0.5490 0.8000 0.9922);stop-opacity:1;"/>
<stop offset="1" stop-color="#D5ECFC" style="stop-color:#D5ECFC;stop-color:color(display-p3 0.8353 0.9255 0.9882);stop-opacity:1;"/>
</linearGradient>
</defs>
</svg>
