<svg width="26" height="26" viewBox="0 0 26 26" fill="none" xmlns="http://www.w3.org/2000/svg">
<path d="M25.0858 23.553C25.2027 23.6699 25.2954 23.8086 25.3586 23.9613C25.4218 24.114 25.4544 24.2776 25.4544 24.4429C25.4544 24.6081 25.4218 24.7718 25.3586 24.9244C25.2954 25.0771 25.2027 25.2158 25.0858 25.3327C24.969 25.4495 24.8302 25.5422 24.6775 25.6055C24.5249 25.6687 24.3612 25.7013 24.196 25.7013C24.0307 25.7013 23.8671 25.6687 23.7144 25.6055C23.5617 25.5422 23.423 25.4495 23.3061 25.3327L12.8765 14.9015L2.4469 25.3327C2.2109 25.5687 1.89081 25.7013 1.55706 25.7013C1.22331 25.7013 0.903225 25.5687 0.667227 25.3327C0.431228 25.0967 0.298645 24.7766 0.298645 24.4429C0.298645 24.1091 0.431228 23.789 0.667227 23.553L11.0984 13.1234L0.667227 2.69378C0.431228 2.45778 0.298645 2.1377 0.298645 1.80395C0.298645 1.4702 0.431228 1.15011 0.667227 0.914114C0.903225 0.678115 1.22331 0.545532 1.55706 0.545532C1.89081 0.545532 2.2109 0.678115 2.4469 0.914114L12.8765 11.3453L23.3061 0.914114C23.5421 0.678115 23.8622 0.545532 24.196 0.545532C24.5297 0.545532 24.8498 0.678115 25.0858 0.914114C25.3218 1.15011 25.4544 1.4702 25.4544 1.80395C25.4544 2.1377 25.3218 2.45778 25.0858 2.69378L14.6546 13.1234L25.0858 23.553Z" fill="white" style="fill:white;fill-opacity:1;"/>
</svg>
